<?xml version="1.0" standalone="no"?>
<!DOCTYPE svg PUBLIC "-//W3C//DTD SVG 20010904//EN"
 "http://www.w3.org/TR/2001/REC-SVG-20010904/DTD/svg10.dtd">
<svg version="1.0" xmlns="http://www.w3.org/2000/svg"
 width="1220.000000pt" height="1220.000000pt" viewBox="0 0 1220.000000 1220.000000"
 preserveAspectRatio="xMidYMid meet">
<metadata>
Created by potrace 1.11, written by Peter Selinger 2001-2013
</metadata>
<g transform="translate(0.000000,1220.000000) scale(0.100000,-0.100000)"
fill="#000000" stroke="none">
<path d="M5070 10060 c-91 -4 -203 -13 -250 -19 -254 -35 -371 -54 -463 -76
-56 -14 -113 -25 -127 -25 -58 0 -532 -147 -712 -222 -104 -42 -277 -137 -373
-202 -127 -88 -323 -276 -389 -376 -65 -98 -126 -210 -136 -250 -4 -19 -17
-60 -29 -91 -41 -112 -61 -360 -41 -499 5 -36 12 -89 15 -119 8 -72 50 -201
91 -284 34 -66 105 -187 125 -210 5 -7 32 -43 61 -82 104 -142 371 -387 537
-493 31 -19 58 -38 61 -41 26 -33 437 -250 605 -321 55 -23 144 -57 198 -75
l98 -33 -6 56 c-10 89 -57 375 -66 398 -5 14 -34 31 -96 54 -142 54 -499 239
-602 313 -51 37 -97 67 -101 67 -5 0 -15 6 -22 13 -7 6 -36 30 -63 52 -179
141 -300 279 -383 435 -85 161 -98 217 -95 422 2 156 12 203 72 323 57 115 96
172 184 268 68 76 289 257 312 257 5 0 18 8 29 18 28 25 365 180 501 230 178
66 454 141 580 157 28 4 84 15 125 25 86 21 136 28 235 36 39 2 124 11 190 19
385 46 854 46 1305 0 80 -8 181 -17 225 -20 159 -11 533 -79 910 -165 238 -54
317 -77 590 -174 235 -84 274 -99 405 -159 35 -16 86 -37 112 -48 26 -10 80
-35 119 -54 39 -20 74 -34 77 -31 3 3 1 6 -5 6 -5 0 -81 44 -169 98 -144 88
-372 207 -574 300 -160 73 -610 231 -760 267 -41 9 -122 31 -179 47 -58 17
-112 31 -120 33 -328 67 -589 115 -681 125 -52 5 -158 17 -235 26 -247 28
-737 39 -1085 24z"/>
<path d="M5545 9570 c-174 -8 -300 -20 -416 -40 -31 -6 -87 -12 -125 -15 -154
-10 -723 -136 -889 -197 -328 -121 -482 -209 -685 -391 -83 -75 -194 -233
-238 -337 -25 -59 -27 -65 -43 -154 -25 -139 29 -339 125 -459 77 -97 259
-250 416 -349 68 -44 311 -166 443 -224 98 -42 99 -43 93 -18 -4 14 -11 66
-16 117 -20 189 -36 287 -48 298 -4 4 -56 23 -117 44 -60 21 -143 53 -183 71
-41 19 -76 34 -79 34 -3 0 -38 23 -77 52 -89 64 -169 148 -204 213 -24 46 -27
60 -27 165 0 98 3 121 21 155 12 22 34 64 49 92 35 69 133 170 215 221 36 23
71 46 77 52 13 11 159 80 169 80 3 0 31 12 62 26 254 116 961 280 1292 299 41
2 176 14 300 27 301 30 954 33 1260 5 317 -29 470 -46 611 -66 74 -11 161 -23
194 -26 33 -4 114 -17 180 -31 66 -13 129 -26 140 -28 11 -2 74 -16 140 -31
66 -14 129 -27 140 -27 11 0 67 -13 125 -29 58 -15 121 -30 140 -34 19 -3 69
-17 110 -31 441 -144 573 -190 675 -234 66 -28 133 -56 150 -63 16 -7 84 -40
152 -74 126 -63 160 -75 76 -26 -27 15 -77 46 -113 69 -68 44 -267 146 -309
159 -14 4 -50 21 -80 37 -82 43 -601 248 -629 248 -4 0 -63 17 -132 39 -154
48 -274 81 -309 86 -14 2 -73 15 -131 30 -58 15 -118 29 -133 31 -16 2 -74 15
-130 29 -56 13 -118 27 -137 30 -19 3 -95 17 -168 31 -72 14 -149 27 -170 29
-20 2 -131 17 -247 33 -115 16 -230 30 -255 31 -25 1 -169 12 -320 26 -308 27
-674 36 -945 25z"/>
<path d="M6945 8399 c-101 -14 -132 -43 -390 -369 -58 -74 -116 -146 -129
-160 -34 -39 -150 -209 -178 -265 -26 -49 -56 -115 -77 -165 -8 -21 -10 -17
-10 31 -2 109 -110 277 -212 329 -140 72 -259 75 -397 9 -203 -97 -287 -348
-188 -564 14 -31 32 -62 40 -70 8 -8 16 -18 18 -22 7 -18 90 -75 141 -99 125
-57 243 -54 372 10 82 41 146 101 180 171 14 28 22 40 19 28 -3 -12 -16 -104
-29 -205 -29 -226 -42 -291 -66 -346 -23 -53 -53 -66 -134 -58 -282 25 -317
28 -675 47 -260 14 -460 9 -485 -11 -9 -8 -21 -25 -26 -38 -20 -53 40 -96 186
-131 44 -10 123 -31 175 -45 52 -15 138 -38 190 -52 107 -29 297 -89 350 -109
19 -8 55 -19 80 -26 25 -6 65 -19 90 -29 115 -46 260 -86 345 -95 77 -9 127 6
173 49 42 39 66 85 136 266 58 151 142 330 155 330 4 0 18 10 31 22 16 15 40
23 76 26 45 4 81 -6 268 -69 119 -40 216 -79 216 -85 0 -6 -18 -47 -39 -90
-76 -153 -122 -266 -188 -464 -30 -90 -36 -121 -39 -217 -2 -66 1 -125 8 -145
26 -78 113 -151 193 -164 74 -11 237 -44 246 -50 5 -2 22 -7 39 -9 39 -5 192
-38 350 -77 151 -37 231 -66 330 -120 41 -23 84 -46 95 -52 11 -6 52 -32 90
-57 91 -60 117 -65 155 -29 55 51 34 122 -65 216 -24 23 -92 80 -152 127 -59
47 -122 97 -138 110 -17 14 -48 35 -70 48 -22 12 -82 49 -132 82 -51 32 -128
78 -170 100 -53 28 -79 49 -81 62 -1 11 22 59 53 107 30 48 78 130 106 183 28
52 54 95 58 95 4 0 27 -41 51 -92 25 -50 64 -121 88 -157 23 -36 42 -68 42
-73 0 -16 124 -186 160 -218 3 -3 28 -36 55 -75 27 -38 76 -103 110 -144 33
-41 78 -97 99 -125 47 -61 203 -245 226 -266 9 -8 39 -44 67 -80 28 -36 63
-76 78 -90 15 -14 48 -52 73 -85 90 -117 207 -242 277 -294 56 -43 127 -81
148 -81 30 0 59 35 60 71 1 51 -31 108 -162 284 -28 39 -112 174 -160 258 -13
23 -30 53 -39 67 -46 73 -339 701 -376 808 -8 23 -22 57 -30 75 -23 52 -83
224 -117 337 -17 58 -42 139 -55 180 -13 41 -28 98 -34 127 -18 100 -96 263
-165 350 -81 102 -204 181 -306 197 -20 3 -48 10 -63 16 -26 10 -143 37 -196
45 -29 5 -119 23 -280 59 -63 13 -162 34 -220 46 -176 35 -239 57 -246 86 -15
58 26 174 88 248 27 33 35 37 61 32 17 -3 65 -27 106 -52 116 -70 690 -352
741 -363 74 -17 108 -14 135 14 30 29 33 83 7 115 -17 21 -64 51 -167 106 -52
28 -127 75 -135 85 -3 3 -27 18 -54 33 -122 68 -336 269 -456 430 -37 49 -159
155 -179 156 -3 0 -22 4 -41 8 -19 4 -57 5 -85 1z"/>
<path d="M9176 6998 c22 -133 54 -344 59 -388 7 -63 35 -233 39 -238 2 -1 68
-27 147 -56 131 -49 364 -142 464 -185 22 -10 56 -24 75 -31 73 -28 359 -164
445 -213 158 -89 359 -210 380 -230 11 -10 34 -26 50 -34 54 -28 230 -171 343
-278 76 -71 202 -224 202 -244 0 -6 4 -11 9 -11 19 0 141 -267 167 -365 49
-186 40 -430 -21 -585 -34 -85 -128 -262 -170 -318 -40 -53 -150 -177 -179
-201 -10 -9 -55 -48 -100 -86 -90 -78 -235 -185 -299 -221 -98 -55 -467 -241
-522 -262 -239 -95 -504 -184 -675 -228 -30 -8 -84 -23 -120 -34 -36 -10 -128
-33 -205 -50 -77 -18 -187 -42 -245 -56 -112 -25 -442 -81 -531 -90 -30 -2
-130 -16 -224 -29 -93 -13 -213 -27 -265 -30 -52 -3 -219 -14 -370 -25 -491
-35 -807 -41 -1290 -25 -239 8 -514 21 -610 29 -96 8 -238 20 -315 26 -77 6
-200 19 -275 30 -74 11 -160 21 -190 24 -145 11 -689 95 -950 147 -85 17 -168
32 -185 35 -67 11 -277 57 -387 85 -308 78 -374 95 -523 140 -88 26 -196 57
-240 68 -44 11 -129 39 -190 61 -60 23 -162 58 -225 80 -63 21 -162 57 -220
80 -58 22 -139 54 -181 70 -41 15 -116 48 -167 72 -51 24 -92 41 -92 38 0 -8
603 -318 627 -322 5 -1 42 -18 83 -38 41 -21 163 -72 270 -114 107 -43 211
-83 230 -91 74 -30 311 -115 318 -115 5 0 85 -24 178 -54 226 -72 326 -100
744 -204 352 -88 613 -147 700 -157 41 -5 101 -16 435 -75 98 -17 145 -24 330
-45 28 -4 101 -15 164 -26 63 -10 173 -23 245 -29 72 -5 244 -20 381 -34 138
-13 349 -30 470 -38 275 -16 958 -16 1280 1 132 7 260 13 285 12 25 0 124 11
220 24 96 14 225 30 285 35 61 6 160 20 220 30 61 11 128 22 150 24 22 3 100
19 175 36 74 17 194 45 265 61 224 51 365 89 515 139 142 48 355 127 415 154
17 8 59 26 95 41 110 46 315 152 455 235 304 181 630 470 775 685 19 28 37 52
42 53 4 2 8 8 8 14 0 5 8 22 19 36 77 109 191 419 191 523 0 24 5 74 10 110
19 134 -20 431 -74 561 -9 19 -13 38 -10 40 3 3 -7 31 -21 63 -14 32 -25 62
-25 67 0 11 -82 181 -90 188 -4 3 -24 36 -46 74 -21 38 -46 79 -54 91 -8 12
-24 35 -35 51 -53 80 -228 268 -425 458 -33 31 -272 209 -380 283 -25 16 -126
78 -225 136 -244 142 -432 235 -705 347 -69 28 -138 57 -155 65 -32 15 -136
57 -245 99 -120 46 -467 156 -493 156 -9 0 -13 -8 -11 -22z"/>
<path d="M9320 6048 c0 -56 64 -485 73 -495 2 -2 44 -17 93 -34 49 -17 163
-57 254 -89 91 -32 218 -83 284 -114 65 -31 119 -56 120 -56 4 0 158 -94 216
-132 137 -89 245 -202 298 -311 55 -112 62 -138 62 -231 0 -191 -82 -377 -224
-506 -21 -19 -57 -52 -80 -73 -23 -21 -72 -56 -111 -79 -38 -23 -77 -47 -85
-54 -21 -17 -278 -146 -380 -189 -91 -39 -553 -195 -578 -195 -8 0 -65 -13
-126 -29 -61 -16 -172 -43 -246 -60 -74 -16 -184 -42 -245 -56 -60 -14 -144
-29 -185 -35 -41 -5 -132 -19 -203 -30 -70 -11 -156 -22 -191 -24 -36 -3 -154
-17 -263 -30 -109 -14 -232 -28 -273 -31 -41 -3 -181 -15 -310 -25 -661 -55
-1528 -55 -2285 0 -148 11 -308 22 -355 25 -95 5 -506 42 -560 50 -19 3 -62 7
-95 10 -33 3 -134 16 -225 30 -91 13 -194 26 -230 30 -36 3 -103 12 -150 19
-47 8 -125 20 -175 26 -49 7 -160 25 -245 40 -85 16 -175 32 -200 35 -25 4
-70 13 -100 20 -30 8 -91 21 -135 28 -148 26 -553 115 -690 152 -49 13 -106
27 -125 30 -19 4 -69 17 -110 30 -41 12 -124 37 -185 55 -163 49 -697 219
-720 230 -11 6 -60 25 -110 44 -148 56 -325 131 -412 175 -46 23 -83 37 -83
31 0 -5 5 -10 11 -10 6 0 54 -26 107 -57 101 -59 518 -263 538 -263 4 0 25 -9
48 -20 165 -79 916 -347 1081 -385 11 -3 63 -18 115 -34 135 -43 260 -76 375
-100 106 -22 178 -41 425 -114 85 -25 171 -47 190 -50 19 -2 85 -16 145 -31
99 -23 417 -82 505 -93 19 -3 60 -11 90 -19 30 -7 102 -19 160 -25 58 -6 195
-24 305 -40 272 -39 701 -85 925 -99 102 -6 239 -18 305 -25 201 -23 772 -40
1325 -39 659 1 819 9 1490 74 52 5 172 21 265 35 94 14 190 28 215 31 51 6
426 80 480 94 19 5 53 12 75 15 49 7 57 10 165 42 403 119 474 145 710 249
277 123 462 220 568 298 317 230 496 474 536 726 16 100 16 111 -3 240 -19
130 -72 298 -104 333 -7 6 -20 30 -30 51 -16 34 -88 135 -124 174 -7 7 -13 17
-13 20 0 4 -11 14 -24 22 -14 8 -58 47 -98 86 -92 89 -311 234 -493 326 -77
38 -158 80 -180 93 -22 13 -67 33 -100 46 -33 12 -116 47 -185 77 -69 30 -177
74 -240 98 -63 23 -148 56 -189 73 -84 36 -81 35 -81 19z"/>
<path d="M5898 5939 c-24 -18 -28 -28 -28 -69 0 -41 4 -50 27 -65 14 -10 36
-29 48 -44 28 -31 87 -35 128 -8 30 20 47 81 28 106 -6 9 -14 24 -17 34 -4 9
-10 18 -15 18 -5 1 -13 2 -18 3 -6 0 -19 11 -31 24 -27 29 -85 29 -122 1z"/>
<path d="M639 5918 c-4 -39 -7 -56 -13 -85 -7 -32 -6 -33 23 -33 28 0 31 -3
31 -29 l0 -29 81 0 c44 0 82 -2 84 -4 3 -2 0 -20 -5 -39 -6 -19 -19 -86 -30
-149 -11 -63 -28 -160 -39 -215 -11 -55 -27 -143 -36 -195 -10 -52 -20 -101
-22 -107 -4 -9 6 -13 32 -13 35 0 37 -2 31 -25 -6 -25 -6 -25 68 -25 86 0 75
-14 105 140 79 414 75 391 84 453 11 68 31 163 37 170 4 5 61 9 126 10 l118 2
13 60 c7 33 12 63 13 68 0 4 -18 7 -40 7 -38 0 -40 1 -34 25 l6 25 -316 0
c-245 0 -316 -3 -317 -12z"/>
<path d="M3660 5511 l-103 -206 -24 140 c-12 77 -24 151 -26 165 -3 19 -10 26
-30 28 -19 2 -29 11 -33 28 -6 23 -10 24 -85 24 -58 0 -77 -3 -74 -12 6 -21
103 -555 110 -606 5 -41 12 -52 35 -52 13 0 22 -9 26 -25 6 -24 9 -25 83 -25
l77 0 41 73 c158 284 263 476 263 482 0 3 11 23 25 43 33 48 32 59 -6 67 -18
4 -33 15 -36 25 -3 12 -27 24 -72 37 l-68 20 -103 -206z"/>
<path d="M2394 5699 c-16 -5 -41 -20 -54 -34 -14 -15 -34 -25 -52 -25 -27 0
-33 8 -28 39 1 12 -12 13 -76 8 -42 -4 -98 -7 -124 -7 -47 0 -48 0 -58 -42
-13 -51 -9 -58 30 -58 27 0 30 -2 24 -25 -6 -22 -3 -25 19 -25 20 0 25 -4 21
-17 -2 -10 -14 -65 -26 -123 -12 -58 -33 -155 -46 -217 -32 -151 -32 -153 12
-153 34 0 36 -2 30 -25 -6 -25 -6 -25 67 -25 l73 0 12 73 c40 257 160 466 265
463 36 -1 38 1 43 36 6 36 28 57 39 37 4 -5 11 -6 17 -3 7 5 9 -2 4 -20 -5
-22 -3 -26 14 -26 22 0 21 -7 -6 -125 -7 -33 -16 -82 -19 -110 -4 -27 -17 -99
-29 -160 l-23 -110 34 -3 c31 -3 34 -6 29 -28 -6 -24 -6 -24 73 -24 l78 0 7
59 c9 81 48 217 79 279 59 116 168 234 194 209 6 -6 -6 -83 -56 -347 l-27
-145 34 -3 c30 -3 33 -6 28 -28 -6 -24 -6 -24 68 -24 l75 0 6 38 c4 20 15 78
27 127 57 255 70 369 47 432 -11 34 -91 107 -134 123 -59 22 -133 10 -197 -33
-17 -12 -40 -17 -65 -15 -34 3 -38 6 -35 27 l4 24 -78 -6 c-42 -4 -101 -7
-131 -7 -38 0 -53 -4 -53 -14 0 -9 -8 -12 -26 -8 -16 3 -23 9 -20 19 4 8 -4
17 -20 23 -29 11 -28 11 -70 -1z"/>
<path d="M4967 5700 c-15 -5 -41 -20 -58 -34 -17 -14 -43 -26 -58 -26 -25 0
-28 3 -23 27 l5 26 -78 -6 c-43 -4 -99 -7 -125 -7 l-48 0 -11 -44 c-14 -56
-14 -59 2 -53 20 7 47 -12 47 -33 0 -14 7 -20 21 -20 17 0 20 -4 15 -24 -3
-13 -10 -54 -16 -92 -5 -38 -20 -123 -34 -189 -13 -66 -27 -139 -30 -162 -6
-43 -6 -43 25 -43 28 0 31 -3 27 -25 -5 -25 -5 -25 68 -25 l73 0 14 53 c8 28
18 72 21 97 8 54 48 175 82 246 32 68 121 144 169 144 32 0 33 1 48 68 8 37
13 69 11 71 -2 3 -20 5 -39 5 -30 1 -33 4 -28 24 4 15 1 22 -10 22 -8 0 -21 2
-29 4 -7 2 -25 1 -41 -4z"/>
<path d="M4153 5681 c-97 -33 -157 -96 -221 -231 -31 -65 -36 -87 -40 -170 -6
-144 4 -170 103 -259 78 -71 214 -85 388 -40 l37 10 0 60 c0 65 3 63 -47 42
-9 -4 -13 6 -13 32 0 31 -3 36 -17 30 -36 -15 -100 -24 -170 -25 l-73 0 0 60
c0 41 4 60 13 60 6 0 58 7 114 14 113 15 208 54 257 105 38 40 56 138 33 185
-9 19 -28 42 -42 53 -15 10 -40 30 -56 45 -53 50 -169 63 -266 29z m167 -164
c0 -35 -41 -77 -86 -87 -83 -20 -96 -5 -41 47 64 61 127 81 127 40z"/>
<path d="M5325 5687 c-106 -31 -186 -111 -242 -245 -31 -72 -33 -84 -33 -192
0 -128 13 -166 70 -198 16 -9 30 -22 30 -29 0 -19 61 -50 122 -63 58 -11 170
-2 261 21 l37 10 0 60 c0 54 -2 60 -17 54 -33 -12 -38 -10 -41 23 -3 29 -5 31
-24 21 -12 -6 -68 -14 -124 -17 l-104 -5 0 61 0 61 53 5 c28 4 70 8 92 10 70
8 175 53 225 98 47 43 70 140 45 188 -18 35 -114 116 -159 135 -41 17 -134 18
-191 2z m145 -175 c0 -34 -31 -70 -68 -78 -15 -3 -42 -10 -59 -14 -42 -11 -44
6 -6 51 25 30 92 68 121 69 7 0 12 -12 12 -28z"/>
<path d="M6486 5670 c-32 -17 -74 -30 -93 -30 -31 0 -33 2 -27 26 l7 26 -124
-7 c-68 -4 -128 -11 -132 -15 -5 -4 -11 -26 -14 -49 -6 -41 -5 -41 26 -41 28
0 32 -3 29 -22 -2 -17 3 -24 20 -26 12 -2 22 -4 22 -5 0 -8 -45 -230 -64 -320
-14 -62 -27 -129 -31 -149 l-6 -38 37 0 c33 0 36 -2 32 -25 -5 -25 -5 -25 68
-25 l73 0 10 53 c6 28 13 74 16 101 15 129 157 368 233 391 19 5 22 3 23 -22
2 -35 5 -15 -30 -190 -16 -81 -32 -168 -36 -193 -3 -25 -8 -55 -12 -67 -4 -20
-1 -23 26 -23 26 0 31 -4 31 -25 0 -24 2 -25 74 -25 86 0 78 -10 100 125 8 50
26 145 40 213 40 191 31 279 -33 320 -14 9 -33 24 -42 34 -43 47 -138 51 -223
8z"/>
<path d="M1271 5681 l-85 -6 -9 -34 c-8 -34 -4 -62 10 -60 4 1 19 1 32 0 20
-1 22 -5 17 -26 -6 -22 -3 -25 19 -25 20 0 25 -4 21 -17 -17 -58 -56 -258 -62
-316 -7 -66 8 -147 27 -147 4 0 29 -20 56 -45 28 -26 62 -47 81 -51 47 -9 144
14 177 42 19 16 40 24 67 24 36 0 38 -1 32 -26 l-6 -25 126 2 c70 1 129 6 132
11 3 4 8 28 11 53 l5 45 -35 0 c-31 0 -34 3 -30 21 4 15 0 22 -16 26 -14 4
-20 11 -17 22 8 27 26 109 32 149 3 20 16 87 30 147 13 61 26 129 29 153 l5
42 -38 0 c-36 0 -39 2 -34 25 4 25 4 25 -66 25 l-71 0 -10 -52 c-6 -29 -16
-80 -21 -112 -5 -33 -14 -64 -20 -70 -5 -5 -10 -16 -10 -23 0 -24 -81 -186
-113 -225 -18 -22 -50 -48 -71 -59 l-39 -21 6 79 c3 43 19 139 36 213 16 74
32 154 35 178 l6 42 -36 0 c-34 0 -36 2 -30 25 7 28 10 28 -173 16z"/>
<path d="M5814 5683 l-82 -4 -11 -44 c-6 -24 -11 -46 -11 -49 0 -3 16 -6 36
-6 34 0 36 -2 30 -25 -6 -22 -3 -25 19 -25 26 0 27 -8 4 -100 -15 -61 -38
-184 -43 -225 -4 -35 -13 -84 -31 -162 -5 -21 -2 -23 31 -23 34 0 36 -2 30
-25 l-7 -26 73 3 72 3 28 145 c15 80 39 201 53 270 14 69 28 141 30 160 3 19
8 47 11 63 5 26 4 27 -31 27 -35 0 -37 2 -31 25 6 24 5 25 -41 23 -27 -1 -85
-4 -129 -5z"/>
<path d="M6898 4823 c-32 -4 -39 -9 -44 -31 -3 -15 -8 -33 -10 -41 -6 -18 13
-31 44 -31 19 0 21 -4 16 -25 -5 -21 -3 -25 15 -25 19 0 21 -4 16 -42 -3 -24
-16 -99 -29 -168 -54 -277 -77 -399 -91 -485 -9 -49 -18 -98 -21 -107 -4 -15
1 -18 31 -18 35 0 36 -1 30 -30 l-7 -30 75 0 75 0 11 51 c6 29 18 90 26 138
14 83 36 200 95 516 16 83 31 168 35 190 3 22 8 52 11 68 5 25 4 27 -30 27
-34 0 -36 2 -30 25 l6 25 -93 -2 c-52 -1 -111 -3 -131 -5z"/>
<path d="M4624 4790 c-22 -9 -41 -49 -42 -87 -1 -14 11 -31 30 -44 16 -12 41
-32 56 -46 40 -37 67 -39 107 -9 30 23 35 33 35 67 0 40 -26 79 -53 79 -7 0
-23 11 -35 25 -23 26 -58 31 -98 15z"/>
<path d="M4876 4779 c-21 -16 -26 -29 -26 -64 0 -38 4 -46 30 -62 17 -9 30
-20 30 -24 0 -10 69 -49 87 -49 21 0 83 64 83 85 0 22 -38 85 -52 85 -6 0 -23
11 -40 25 -36 30 -76 32 -112 4z"/>
<path d="M3278 4753 c-39 -4 -44 -14 -54 -93 -4 -34 -26 -150 -84 -440 -16
-80 -36 -188 -45 -240 -9 -52 -19 -102 -21 -111 -3 -12 5 -18 31 -23 31 -6 34
-10 29 -31 l-6 -24 129 -3 c70 -2 160 1 198 5 80 9 174 49 230 98 117 103 132
296 28 360 -18 11 -33 24 -33 28 0 4 17 17 38 28 40 23 68 56 99 118 55 109
33 182 -79 268 -37 28 -63 39 -130 51 -78 15 -235 19 -330 9z m342 -216 c0
-49 -35 -109 -78 -131 -32 -17 -139 -46 -145 -39 -4 3 27 165 38 201 3 8 31
12 95 12 l90 0 0 -43z m-64 -363 c10 -40 -2 -100 -25 -125 -12 -13 -21 -26
-21 -29 0 -15 -131 -59 -178 -60 -14 0 -14 7 9 150 6 36 12 71 14 78 3 8 32
12 99 12 94 0 96 0 102 -26z"/>
<path d="M5475 4755 c-5 -2 -35 -11 -66 -20 l-55 -15 -13 -63 c-7 -34 -17 -79
-22 -99 l-10 -38 -58 0 -58 0 -15 -55 c-8 -30 -13 -57 -10 -60 3 -3 19 -5 35
-5 26 0 29 -3 23 -25 -6 -23 -3 -25 24 -25 20 0 30 -5 30 -15 0 -8 -13 -78
-30 -155 -16 -77 -30 -165 -30 -196 0 -55 21 -124 38 -124 5 0 30 -17 57 -37
l48 -38 100 2 c54 1 100 3 102 5 2 2 6 31 10 65 l7 63 -31 -6 c-29 -6 -31 -5
-31 24 0 30 -1 30 -42 25 l-41 -6 7 82 c6 71 36 244 52 294 5 14 18 17 89 17
80 0 83 1 89 25 5 18 13 25 30 25 19 0 22 -4 18 -25 -4 -21 -1 -25 20 -25 l25
0 -14 -87 c-7 -49 -18 -104 -23 -123 -19 -70 -28 -169 -20 -206 10 -43 65
-101 126 -133 32 -17 54 -19 127 -16 49 1 90 5 92 7 1 1 6 31 10 65 l7 63 -31
-6 c-29 -6 -31 -5 -31 23 0 28 -2 30 -42 29 -42 -1 -43 0 -41 29 1 17 13 84
27 150 14 66 26 134 26 151 0 46 15 54 101 54 l77 0 11 50 c15 70 15 70 -24
70 -33 0 -35 2 -29 25 6 24 5 25 -46 25 -28 0 -49 4 -46 9 3 5 10 37 15 72 6
35 13 75 17 88 6 22 5 23 -19 18 -14 -4 -33 -10 -42 -14 -16 -5 -17 -2 -11 32
6 29 4 37 -6 33 -7 -3 -38 -11 -68 -18 -30 -8 -60 -20 -67 -28 -11 -13 -29
-111 -32 -174 -1 -15 -11 -18 -65 -18 -60 0 -64 -2 -70 -25 -5 -18 -13 -25
-31 -25 -22 0 -25 3 -19 25 6 24 5 25 -46 25 -44 0 -51 2 -46 18 2 9 10 44 16
77 6 33 14 68 16 78 5 15 1 17 -36 11 l-42 -7 7 32 c6 29 3 34 -20 26z"/>
<path d="M4263 4527 c-17 -7 -43 -22 -57 -34 -15 -13 -39 -23 -57 -23 -28 0
-31 3 -26 26 l4 25 -121 -7 c-66 -4 -123 -8 -125 -11 -3 -2 -6 -10 -7 -17 -1
-7 -5 -27 -8 -43 -6 -28 -4 -31 24 -36 21 -5 30 -12 30 -27 0 -13 7 -20 20
-20 24 0 24 1 6 -75 -8 -33 -17 -76 -20 -95 -3 -19 -15 -78 -26 -130 -12 -52
-23 -108 -25 -123 -2 -16 -7 -42 -10 -58 -6 -28 -5 -29 30 -29 34 0 36 -2 33
-27 l-3 -28 72 -3 71 -3 11 53 c6 29 13 74 16 100 7 61 58 198 100 268 44 73
108 124 152 123 38 -1 46 8 45 49 -1 23 3 28 14 24 9 -3 19 -6 24 -6 4 0 6 -9
3 -20 -4 -15 0 -20 16 -20 11 0 21 -3 21 -7 0 -16 -20 -121 -44 -241 -32 -152
-27 -185 36 -249 68 -69 99 -84 160 -82 56 3 94 15 143 49 17 11 45 20 62 20
31 0 32 -1 26 -32 l-6 -31 123 6 c68 4 125 9 128 12 7 6 21 89 16 94 -3 4 -16
6 -57 10 -5 1 -5 10 -2 21 5 16 2 20 -15 20 -16 0 -20 5 -16 18 3 9 8 40 12
67 3 28 14 86 24 130 10 44 25 121 34 170 9 50 19 100 22 113 6 20 3 22 -35
22 -39 0 -41 1 -35 25 6 25 6 25 -64 25 l-71 0 -7 -37 c-25 -148 -40 -198 -87
-298 -28 -60 -64 -127 -80 -148 -28 -36 -106 -86 -108 -70 -4 27 2 73 24 188
14 72 30 162 36 200 7 39 15 80 18 93 5 20 2 22 -32 22 -35 0 -37 2 -31 26 l7
25 -128 -7 c-70 -4 -129 -11 -131 -15 -2 -5 -14 -9 -27 -9 -18 0 -22 4 -18 20
4 14 0 20 -10 20 -8 0 -21 2 -29 4 -7 3 -27 -1 -45 -7z"/>
<path d="M6405 4510 c-67 -24 -127 -75 -181 -156 -66 -99 -95 -232 -74 -346
12 -70 15 -75 75 -134 79 -78 124 -94 243 -90 86 4 117 9 180 28 31 9 32 11
32 70 0 53 -2 59 -17 53 -38 -16 -48 -11 -47 23 0 17 -1 32 -3 32 -2 0 -20 -7
-41 -16 -23 -10 -71 -18 -124 -19 -100 -3 -105 1 -93 81 6 43 7 44 43 45 134
2 254 40 331 104 42 36 65 113 50 168 -11 43 -87 125 -142 154 -51 26 -161 27
-232 3z m175 -165 c0 -41 -55 -85 -115 -92 -16 -2 -38 -6 -49 -9 -21 -7 -18 0
23 55 25 34 89 70 124 71 12 0 17 -8 17 -25z"/>
<path d="M7396 4509 c-98 -37 -173 -123 -226 -260 -25 -66 -30 -92 -30 -168 0
-125 14 -157 105 -230 65 -52 79 -59 134 -65 71 -8 164 0 239 20 l52 15 0 60
c0 45 -3 60 -12 56 -50 -20 -48 -21 -48 17 0 41 0 41 -42 20 -18 -9 -68 -18
-124 -21 l-94 -6 0 67 c0 65 0 66 28 67 148 6 164 9 245 48 104 50 134 80 148
153 18 88 11 101 -92 188 -20 16 -53 37 -73 45 -48 20 -149 17 -210 -6z m172
-162 c2 -9 -9 -32 -23 -51 -21 -27 -36 -36 -70 -41 -76 -12 -84 -6 -44 39 33
38 103 79 124 72 6 -1 11 -10 13 -19z"/>
<path d="M8205 4501 c-34 -18 -76 -31 -98 -31 -36 0 -37 1 -31 27 l7 26 -69
-6 c-38 -4 -95 -7 -126 -7 -61 0 -59 1 -73 -66 -6 -29 -4 -32 26 -38 25 -5 30
-10 26 -26 -4 -16 0 -20 20 -20 21 0 24 -4 20 -22 -3 -13 -10 -54 -17 -93 -7
-38 -25 -134 -41 -213 -37 -182 -37 -182 2 -182 27 0 30 -3 27 -27 -3 -28 -3
-28 68 -31 l71 -3 11 44 c7 24 14 68 18 98 4 30 13 66 20 81 8 15 14 33 14 41
0 27 79 174 114 212 20 22 36 43 36 47 0 9 54 38 69 38 6 0 9 -6 6 -12 -2 -7
-6 -45 -9 -84 -3 -38 -16 -117 -30 -175 -13 -57 -27 -122 -30 -143 -4 -21 -9
-50 -12 -62 -6 -22 -3 -24 31 -24 34 0 36 -2 33 -27 l-3 -28 72 -3 71 -3 11
49 c5 27 15 80 21 118 6 38 22 125 37 193 19 93 24 142 20 195 -5 76 3 65
-103 150 -54 45 -129 47 -209 7z"/>
</g>
</svg>
